<svg width="453.12" height="421.82" xmlns="http://www.w3.org/2000/svg">

 <g>
  <title>Layer 1</title>
  <path id="svg_1" fill="#03a8d5" d="m200.34,220.25l197.92,0l-6.26,35.43l-197.93,0l-9.81,55.32l-42.53,0l16,-90.79l42.66,0l-0.05,0.04zm-26.17,-93.78l-11.35,64.6l42.63,0l4.44,-25.35l226.77,0l6.81,-39.25l-269.3,0z" class="a"/>
  <path id="svg_2" fill="#f99e29" d="m386.47,326l-23.89,-16.12a177.08,177.08 0 0 1 -147,78.2c-97.68,0 -177.15,-79.48 -177.15,-177.16s79.51,-177.17 177.19,-177.17a176,176 0 0 1 125.27,51.89l20.38,-20.37a204.62,204.62 0 0 0 -145.65,-60.33c-113.57,0 -206,92.4 -206,206s92.4,206 206,206a205.87,205.87 0 0 0 170.85,-90.94z" class="b"/>
 </g>
</svg>