<?xml version="1.0" encoding="utf-8"?>
<!-- Generator: Adobe Illustrator 25.2.3, SVG Export Plug-In . SVG Version: 6.00 Build 0)  -->
<svg version="1.1" id="Layer_1" xmlns="http://www.w3.org/2000/svg" xmlns:xlink="http://www.w3.org/1999/xlink" x="0px" y="0px"
	 viewBox="0 0 1374.8 148.5" style="enable-background:new 0 0 1374.8 148.5;" xml:space="preserve">
<style type="text/css">
	.st0{fill:#54565A;}
	.st1{fill:#A32035;}
	.st2{clip-path:url(#SVGID_2_);}
	.st3{clip-path:url(#SVGID_4_);}
	.st4{fill:none;stroke:#54565A;stroke-width:0.19;stroke-miterlimit:10;}
	.st5{clip-path:url(#SVGID_6_);}
	.st6{clip-path:url(#SVGID_8_);}
	.st7{fill:#666766;}
	.st8{fill:#FFFFFF;}
	.st9{fill:none;stroke:#666766;stroke-width:5;stroke-miterlimit:10;}
	.st10{fill-rule:evenodd;clip-rule:evenodd;fill:#666766;}
</style>
<g id="Layer_2_1_">
	<g id="Layer_2-2">
		<path class="st0" d="M152.3,75c-1.7,0-3.1-1.4-3.1-3.1s1.4-3.1,3.1-3.1c1.7,0,3.1,1.4,3.1,3.1l0,0C155.4,73.6,154,75,152.3,75
			L152.3,75z M152.3,67.6c-2.4,0-4.4,2-4.4,4.4s2,4.4,4.4,4.4s4.4-2,4.4-4.4l0,0C156.7,69.5,154.7,67.6,152.3,67.6z M160.9,65.8h3.7
			v-1.6h-2.8l-1.7-2.9c-0.3-0.5-0.8-0.7-1.3-0.7c-0.4,0-0.8,0.2-1.1,0.4l-3.2,3.2c-0.3,0.3-0.5,0.7-0.5,1.1c0,0.5,0.3,1,0.8,1.3
			l2.9,1.8v4.4h1.6v-5.7l-2-1.5l2.1-2.1L160.9,65.8L160.9,65.8z M164.6,75c-1.7,0-3.1-1.4-3.1-3.1s1.4-3.1,3.1-3.1
			c1.7,0,3.1,1.4,3.1,3.1l0,0C167.6,73.6,166.3,75,164.6,75z M164.6,67.6c-2.4,0-4.4,2-4.4,4.4s2,4.4,4.4,4.4s4.4-2,4.4-4.4
			C169,69.5,167,67.6,164.6,67.6L164.6,67.6L164.6,67.6z M161.9,61.2c0.9,0,1.6-0.7,1.6-1.6s-0.7-1.6-1.6-1.6s-1.6,0.7-1.6,1.6
			S161.1,61.2,161.9,61.2L161.9,61.2z"/>
		<path class="st1" d="M172,73.1c-2.5,7.6-10.7,11.6-18.3,9.1s-11.6-10.7-9.1-18.3c2.5-7.4,10.5-11.5,17.9-9.2
			c0.3,0.1,0.7,0.3,1,0.4c-0.1-1.6-0.2-3.2-0.1-4.8c-10.1-2.8-20.6,3.1-23.4,13.2c-2.8,10.1,3.1,20.6,13.2,23.4
			c4.7,1.3,9.7,0.8,14-1.5l11-4.8L172,73.1C172,73.2,172,73.1,172,73.1L172,73.1z"/>
		<g>
			<g>
				<defs>
					<rect id="SVGID_1_" x="98" y="25.5" width="190.9" height="93.8"/>
				</defs>
				<clipPath id="SVGID_2_">
					<use xlink:href="#SVGID_1_"  style="overflow:visible;"/>
				</clipPath>
				<g class="st2">
					<path class="st1" d="M237.1,51.8c-4.3-2.3-9.3-2.8-13.9-1.5c0,0.6,0.1,1.2,0.1,1.9c0,1,0,2-0.1,3c0.3-0.1,0.7-0.3,1-0.4
						c7.6-2.4,15.7,1.9,18.1,9.5c2.4,7.6-1.9,15.7-9.5,18.1c-7.5,2.3-15.5-1.8-18-9.2l-0.1,0.1l-6.3,7.4l11,4.8
						c9.1,5.1,20.7,1.9,25.9-7.2c5.1-9.1,1.9-20.7-7.2-25.9C237.7,52.1,237.4,51.9,237.1,51.8L237.1,51.8z"/>
					<path class="st1" d="M193.3,73.3c-11.7,0-21.2-9.5-21.2-21.2s9.5-21.2,21.2-21.2s21.2,9.5,21.2,21.2l0,0
						C214.5,63.7,205,73.2,193.3,73.3z M212.1,33.3c-10.2-10.5-27.1-10.8-37.6-0.5s-10.8,27.1-0.5,37.6c0.2,0.2,0.4,0.4,0.5,0.5
						l18.8,21.9l18.8-21.9C222.5,60.5,222.5,43.7,212.1,33.3L212.1,33.3z"/>
				</g>
			</g>
		</g>
		<path class="st0" d="M198,59.4c0,0.3-0.2,0.5-0.5,0.5l0,0H194c-0.3,0-0.5-0.2-0.5-0.5l0,0v-1.7c0-0.3,0.2-0.5,0.5-0.5l0,0h3.5
			c0.3,0,0.5,0.2,0.5,0.5l0,0V59.4z M185.2,59.4c0,0.3-0.2,0.5-0.5,0.5h-3.5c-0.3,0-0.5-0.2-0.5-0.5l0,0v-1.7c0-0.3,0.2-0.5,0.5-0.5
			l0,0h3.5c0.3,0,0.5,0.2,0.5,0.5V59.4z M181.1,53.7l1.9-4.5c0.2-0.5,0.8-0.9,1.4-0.9h10.2c0.6,0,1.1,0.4,1.4,0.9l1.9,4.5
			c0.2,0.3,0.1,0.7-0.2,0.8c-0.1,0.1-0.3,0.1-0.4,0.1h-15.4c-0.3,0-0.7-0.2-0.7-0.6C181,53.9,181.1,53.8,181.1,53.7L181.1,53.7z
			 M200,51.5c-0.1,0-0.2,0-0.3,0.1l-1.2,0.3l-1.2-2.9c-0.4-0.9-1.3-1.5-2.3-1.5h-11.3c-1,0-1.9,0.6-2.3,1.5l-1.2,2.9l-1.2-0.3
			c-0.1,0-0.2,0-0.3-0.1c-0.5,0-0.9,0.4-0.9,0.9v0.1v0.7c0,0.7,0.5,1.2,1.2,1.2h0.1l-0.2,0.5c-0.4,0.9-0.6,1.9-0.6,2.9v5.9
			c0,0.7,0.6,1.2,1.2,1.2h1.6c0.7,0,1.2-0.5,1.2-1.2v-1.5h13.8v1.5c0,0.7,0.6,1.2,1.2,1.2l0,0h1.6c0.7,0,1.2-0.6,1.2-1.2v-5.9
			c0-1-0.2-2-0.6-2.9l-0.2-0.5h0.1c0.7,0,1.2-0.5,1.2-1.2l0,0v-0.7C201,51.9,200.6,51.5,200,51.5L200,51.5z"/>
		<path class="st0" d="M204.6,42.8c-0.4,0.3-1,0.5-1.5,0.5h-0.9c-0.1,0-0.2,0.1-0.2,0.2l0,0V45c0,0.2-0.1,0.3-0.3,0.3l0,0h-0.6
			c-0.2,0-0.3-0.1-0.3-0.3l0,0v-5.1c0-0.2,0.1-0.3,0.3-0.3l0,0h1.6c1.1,0,1.5,0.2,1.9,0.4C205.3,40.9,205.3,42.1,204.6,42.8
			L204.6,42.8z M206,37.8h-6c-0.9,0-1.6,0.7-1.6,1.6v6c0,0.9,0.7,1.6,1.6,1.6h2.4v17.3c0,0.3,0.3,0.6,0.6,0.6l0,0
			c0.3,0,0.6-0.3,0.6-0.6l0,0V47.1h2.4c0.9,0,1.6-0.7,1.6-1.6v-6C207.6,38.6,206.9,37.9,206,37.8L206,37.8z"/>
		<path class="st0" d="M203.7,40.8c-0.3-0.1-0.6-0.2-0.9-0.2h-0.6c-0.1,0-0.2,0.1-0.2,0.2l0,0V42c0,0.1,0.1,0.2,0.2,0.2l0,0h0.4
			c0.2,0,0.3,0,0.5,0s0.4-0.1,0.6-0.2c0.2-0.2,0.3-0.4,0.2-0.6C203.9,41.3,203.8,41,203.7,40.8L203.7,40.8z"/>
		<path class="st0" d="M194.4,52.3H194h-0.4c-1-0.1-1.9,0.6-2.1,1.6h5C196.3,52.9,195.4,52.2,194.4,52.3L194.4,52.3z"/>
		<path class="st0" d="M185.3,52.3h-0.4h-0.4c-1-0.1-1.9,0.6-2.1,1.6h5C187.2,52.9,186.3,52.2,185.3,52.3L185.3,52.3z"/>
		<path class="st0" d="M186.2,50.6L186.2,50.6c0-0.8-0.6-1.4-1.4-1.4s-1.4,0.6-1.4,1.4s0.6,1.4,1.4,1.4l0,0
			C185.6,51.9,186.2,51.3,186.2,50.6L186.2,50.6z"/>
		<path class="st0" d="M187.5,49.2c-0.2,0-0.5,0.1-0.7,0.2c0.2,0.3,0.3,0.7,0.3,1.1l0,0c0,0.4-0.1,0.8-0.3,1.1
			c0.2,0.1,0.4,0.2,0.7,0.2c0.8,0,1.4-0.6,1.4-1.4l0,0l0,0C188.9,49.8,188.2,49.2,187.5,49.2L187.5,49.2L187.5,49.2z"/>
		<path class="st0" d="M191,52.3c-0.6,0-1.2,0.4-1.5,1l-0.1,0.2l-0.1-0.2c-0.3-0.6-0.8-1-1.5-1h-0.3h-0.1c0.5,0.4,0.7,1,0.8,1.6h2.4
			c0-0.6,0.3-1.2,0.8-1.6h-0.1H191L191,52.3z"/>
		<path class="st0" d="M193.6,52.3h0.4h0.4c1-0.1,1.9,0.6,2.1,1.6h-5C191.6,52.9,192.5,52.2,193.6,52.3L193.6,52.3z"/>
		<path class="st0" d="M192.6,50.6L192.6,50.6c0-0.8,0.6-1.4,1.4-1.4c0.8,0,1.4,0.6,1.4,1.4c0,0.8-0.6,1.4-1.4,1.4l0,0
			C193.2,51.9,192.6,51.3,192.6,50.6z"/>
		<path class="st0" d="M191.4,49.2c0.2,0,0.5,0.1,0.7,0.2c-0.2,0.3-0.3,0.7-0.3,1.1l0,0c0,0.4,0.1,0.8,0.3,1.1
			c-0.6,0.4-1.5,0.2-1.9-0.4c-0.1-0.2-0.2-0.5-0.2-0.7l0,0C190,49.8,190.6,49.2,191.4,49.2L191.4,49.2z"/>
		<path class="st0" d="M187.8,52.3c0.6,0,1.2,0.4,1.5,1l0.1,0.2l0.1-0.2c0.3-0.6,0.8-1,1.5-1h0.3h0.1c-0.5,0.4-0.7,1-0.8,1.6h-2.4
			c-0.1-0.6-0.3-1.2-0.8-1.6h0.1H187.8L187.8,52.3z"/>
		<path class="st0" d="M234.7,69.2h-11.9V63h11.9V69.2L234.7,69.2z M233.1,74.7c-0.7,0-1.2-0.5-1.2-1.2l0,0c0-0.7,0.5-1.3,1.2-1.3
			s1.3,0.6,1.3,1.3C234.4,74.1,233.8,74.7,233.1,74.7z M224.4,74.7c-0.7,0-1.2-0.5-1.2-1.2l0,0c-0.1-0.7,0.4-1.3,1.1-1.4
			s1.3,0.4,1.4,1.1c0,0.1,0,0.1,0,0.2C225.7,74.1,225.1,74.7,224.4,74.7C224.5,74.7,224.4,74.7,224.4,74.7z M224.3,60.9h8.8v1.3
			h-8.8V60.9z M236.8,63.8c0-1.1-0.3-2.2-0.8-3.2c-1.6-1.9-13.1-2.1-14.4,0c-0.4,1-0.7,2.1-0.7,3.2c-0.5,0.1-0.9,0.5-0.9,1v1.9
			c0,0.4,0.3,0.8,0.6,0.9c-0.1,3,0,6.1,0.1,7.6c0,1.2,0.8,1,0.8,1h0.8v1.3c0.2,0.6,0.8,1,1.5,0.9c0.4-0.1,0.8-0.4,0.9-0.9v-1.3h8.8
			v1.3c0.1,0.6,0.8,1.1,1.4,0.9c0.4-0.1,0.8-0.5,0.9-0.9v-1.3h0.3c0,0,0.9,0.1,1-0.4c0-1.5,0.1-5,0-8.2c0.4-0.1,0.7-0.5,0.7-0.9
			v-1.9C237.7,64.3,237.3,63.8,236.8,63.8L236.8,63.8z"/>
		<polygon class="st0" points="107.7,102.2 103.7,102.2 103.7,115.9 102.1,115.9 102.1,102.2 98.1,102.2 98.1,100.9 107.7,100.9 		
			"/>
		<g>
			<g>
				<defs>
					<rect id="SVGID_3_" x="98" y="25.5" width="190.9" height="93.8"/>
				</defs>
				<clipPath id="SVGID_4_">
					<use xlink:href="#SVGID_3_"  style="overflow:visible;"/>
				</clipPath>
				<g class="st3">
					<polygon class="st4" points="107.7,102.2 103.7,102.2 103.7,115.9 102.1,115.9 102.1,102.2 98.1,102.2 98.1,100.9 107.7,100.9 
											"/>
				</g>
			</g>
		</g>
		<path class="st0" d="M109.4,107.5L109.4,107.5c0.6-1.3,1.4-2.5,3-2.5h0.6v1.4c-2-0.3-3,1.9-3.6,3.4v6h-1.5v-10.6h1.5V107.5
			L109.4,107.5z"/>
		<path class="st4" d="M109.4,107.5L109.4,107.5c0.6-1.3,1.4-2.5,3-2.5h0.6v1.4c-2-0.3-3,1.9-3.6,3.4v6h-1.5v-10.6h1.5V107.5
			L109.4,107.5z"/>
		<path class="st0" d="M119.8,110.1c-1.4,0.4-4,1-4,2.9c0,0.9,0.7,1.7,1.6,1.8c1.2-0.1,2.3-0.8,3-1.7V110L119.8,110.1L119.8,110.1z
			 M120.6,115.9l-0.2-1.4c-0.8,0.9-1.9,1.5-3.1,1.7c-1.7,0-3-1.3-3-3c0,0,0,0,0-0.1c0-3,3.2-3.7,5.6-4.4l0.5-0.1V108
			c0-1-0.7-1.8-1.7-1.9c-0.1,0-0.2,0-0.3,0c-1.1,0.1-2.1,0.7-2.6,1.7l-1.1-0.8c0.8-1.3,2.2-2.1,3.7-2.2c1.8-0.1,3.4,1.3,3.5,3.1
			c0,0.1,0,0.1,0,0.2v5.3c0,0.8,0,1.6,0.3,2.4L120.6,115.9z"/>
		<path class="st4" d="M119.8,110.1c-1.4,0.4-4,1-4,2.9c0,0.9,0.7,1.7,1.6,1.8c1.2-0.1,2.3-0.8,3-1.7V110L119.8,110.1L119.8,110.1z
			 M120.6,115.9l-0.2-1.4c-0.8,0.9-1.9,1.5-3.1,1.7c-1.7,0-3-1.3-3-3c0,0,0,0,0-0.1c0-3,3.2-3.7,5.6-4.4l0.5-0.1V108
			c0-1-0.7-1.8-1.7-1.9c-0.1,0-0.2,0-0.3,0c-1.1,0.1-2.1,0.7-2.6,1.7l-1.1-0.8c0.8-1.3,2.2-2.1,3.7-2.2c1.8-0.1,3.4,1.3,3.5,3.1
			c0,0.1,0,0.1,0,0.2v5.3c0,0.8,0,1.6,0.3,2.4L120.6,115.9z"/>
		<path class="st0" d="M125.8,115.9h-1.5v-10.7h1.5v1.1c0.8-0.8,1.8-1.3,2.9-1.4c1.5,0,2.7,0.8,2.7,3.6v7.4h-1.5v-7
			c0-1.1,0.2-2.8-1.4-2.8c-1.1,0.2-2.1,0.8-2.7,1.6V115.9L125.8,115.9z"/>
		<path class="st4" d="M125.8,115.9h-1.5v-10.7h1.5v1.1c0.8-0.8,1.8-1.3,2.9-1.4c1.5,0,2.7,0.8,2.7,3.6v7.4h-1.5v-7
			c0-1.1,0.2-2.8-1.4-2.8c-1.1,0.2-2.1,0.8-2.7,1.6V115.9L125.8,115.9z"/>
		<path class="st0" d="M139.7,107.6c-0.5-0.9-1.4-1.4-2.4-1.4s-1.9,0.5-1.9,1.6c0,2.6,5.6,1.5,5.6,5.1c0.1,1.8-1.3,3.3-3.1,3.4
			c-0.1,0-0.2,0-0.4,0c-1.6,0.1-3.2-0.8-4-2.2l1.2-0.8c0.5,1.1,1.6,1.8,2.8,1.7c1,0.1,1.9-0.6,2.1-1.6c0-0.1,0-0.1,0-0.2
			c0-2.7-5.6-1.4-5.6-5.2c0-1.7,1.3-3,3-3c0.1,0,0.2,0,0.3,0c1.4,0,2.8,0.7,3.6,1.9L139.7,107.6L139.7,107.6z"/>
		<path class="st4" d="M139.7,107.6c-0.5-0.9-1.4-1.4-2.4-1.4s-1.9,0.5-1.9,1.6c0,2.6,5.6,1.5,5.6,5.1c0.1,1.8-1.3,3.3-3.1,3.4
			c-0.1,0-0.2,0-0.4,0c-1.6,0.1-3.2-0.8-4-2.2l1.2-0.8c0.5,1.1,1.6,1.8,2.8,1.7c1,0.1,1.9-0.6,2.1-1.6c0-0.1,0-0.1,0-0.2
			c0-2.7-5.6-1.4-5.6-5.2c0-1.7,1.3-3,3-3c0.1,0,0.2,0,0.3,0c1.4,0,2.8,0.7,3.6,1.9L139.7,107.6L139.7,107.6z"/>
		<path class="st0" d="M144.6,112.9c0.4,1.1,1.4,1.8,2.5,2c1,0,2.5-1,2.5-4.1c0-1.6-0.4-4.5-2.6-4.5c-1.1,0-2.1,0.7-2.5,1.7
			L144.6,112.9L144.6,112.9z M144.6,119.2h-1.5v-14h1.5v1.1c0.7-0.8,1.6-1.3,2.7-1.4c1.8,0,4,1.7,4,5.9s-2.4,5.4-3.9,5.4
			c-1.1,0-2.1-0.6-2.7-1.5L144.6,119.2L144.6,119.2z"/>
		<g>
			<g>
				<defs>
					<rect id="SVGID_5_" x="98" y="25.5" width="190.9" height="93.8"/>
				</defs>
				<clipPath id="SVGID_6_">
					<use xlink:href="#SVGID_5_"  style="overflow:visible;"/>
				</clipPath>
				<g class="st5">
					<path class="st4" d="M144.6,112.9c0.4,1.1,1.4,1.8,2.5,2c1,0,2.5-1,2.5-4.1c0-1.6-0.4-4.5-2.6-4.5c-1.1,0-2.1,0.7-2.5,1.7
						L144.6,112.9L144.6,112.9z M144.6,119.2h-1.5v-14h1.5v1.1c0.7-0.8,1.6-1.3,2.7-1.4c1.8,0,4,1.7,4,5.9s-2.4,5.4-3.9,5.4
						c-1.1,0-2.1-0.6-2.7-1.5L144.6,119.2L144.6,119.2z"/>
				</g>
			</g>
		</g>
		<path class="st0" d="M160,110.6c0-1.8-0.4-4.4-2.8-4.4s-2.8,2.5-2.8,4.4s0.4,4.4,2.8,4.4S160,112.4,160,110.6z M153,110.6
			c0-4,1.9-5.6,4.3-5.6s4.3,1.6,4.3,5.6s-1.9,5.6-4.3,5.6S153,114.6,153,110.6z"/>
		<path class="st4" d="M160,110.6c0-1.8-0.4-4.4-2.8-4.4s-2.8,2.5-2.8,4.4s0.4,4.4,2.8,4.4S160,112.4,160,110.6z M153,110.6
			c0-4,1.9-5.6,4.3-5.6s4.3,1.6,4.3,5.6s-1.9,5.6-4.3,5.6S153,114.6,153,110.6z"/>
		<path class="st0" d="M165.1,107.5L165.1,107.5c0.6-1.3,1.4-2.5,3-2.5h0.6v1.4c-2-0.3-3,1.9-3.6,3.4v6h-1.5v-10.6h1.5V107.5z"/>
		<path class="st4" d="M165.1,107.5L165.1,107.5c0.6-1.3,1.4-2.5,3-2.5h0.6v1.4c-2-0.3-3,1.9-3.6,3.4v6h-1.5v-10.6h1.5V107.5z"/>
		<path class="st0" d="M172.8,105.2h2.4v1.3h-2.4v6.7c0,1,0,1.7,1.2,1.7c0.4,0,0.8,0,1.2-0.1v1.1c-0.5,0.2-1,0.3-1.5,0.3
			c-2.6,0-2.4-1.7-2.4-3.7v-6h-1.6v-1.3h1.6v-3.5h1.5V105.2L172.8,105.2z"/>
		<path class="st4" d="M172.8,105.2h2.4v1.3h-2.4v6.7c0,1,0,1.7,1.2,1.7c0.4,0,0.8,0,1.2-0.1v1.1c-0.5,0.2-1,0.3-1.5,0.3
			c-2.6,0-2.4-1.7-2.4-3.7v-6h-1.6v-1.3h1.6v-3.5h1.5V105.2L172.8,105.2z"/>
		<path class="st0" d="M181.7,110.1c-1.4,0.4-4,1-4,2.9c0,0.9,0.7,1.7,1.6,1.8c1.2-0.1,2.3-0.8,3-1.7V110L181.7,110.1L181.7,110.1z
			 M182.5,115.9l-0.1-1.4c-0.8,0.9-1.9,1.5-3.1,1.7c-1.7,0-3-1.3-3-3c0,0,0,0,0-0.1c0-3,3.2-3.7,5.6-4.4l0.5-0.1V108
			c0-1-0.7-1.8-1.7-1.9c-0.1,0-0.2,0-0.3,0c-1.1,0.1-2.1,0.7-2.6,1.7l-1.1-0.8c0.8-1.3,2.2-2.1,3.7-2.2c1.8-0.1,3.4,1.3,3.5,3.1
			c0,0.1,0,0.1,0,0.2v5.3c-0.1,0.8,0,1.6,0.3,2.4L182.5,115.9z"/>
		<path class="st4" d="M181.7,110.1c-1.4,0.4-4,1-4,2.9c0,0.9,0.7,1.7,1.6,1.8c1.2-0.1,2.3-0.8,3-1.7V110L181.7,110.1L181.7,110.1z
			 M182.5,115.9l-0.1-1.4c-0.8,0.9-1.9,1.5-3.1,1.7c-1.7,0-3-1.3-3-3c0,0,0,0,0-0.1c0-3,3.2-3.7,5.6-4.4l0.5-0.1V108
			c0-1-0.7-1.8-1.7-1.9c-0.1,0-0.2,0-0.3,0c-1.1,0.1-2.1,0.7-2.6,1.7l-1.1-0.8c0.8-1.3,2.2-2.1,3.7-2.2c1.8-0.1,3.4,1.3,3.5,3.1
			c0,0.1,0,0.1,0,0.2v5.3c-0.1,0.8,0,1.6,0.3,2.4L182.5,115.9z"/>
		<path class="st0" d="M188.3,105.2h2.4v1.3h-2.4v6.7c0,1,0,1.7,1.2,1.7c0.4,0,0.8,0,1.2-0.1v1.1c-0.5,0.2-1,0.3-1.5,0.3
			c-2.6,0-2.4-1.7-2.4-3.7v-6h-1.6v-1.3h1.6v-3.5h1.5V105.2L188.3,105.2z"/>
		<path class="st4" d="M188.3,105.2h2.4v1.3h-2.4v6.7c0,1,0,1.7,1.2,1.7c0.4,0,0.8,0,1.2-0.1v1.1c-0.5,0.2-1,0.3-1.5,0.3
			c-2.6,0-2.4-1.7-2.4-3.7v-6h-1.6v-1.3h1.6v-3.5h1.5V105.2L188.3,105.2z"/>
		<path class="st0" d="M193.6,115.9h-1.5v-10.7h1.5V115.9z M193.6,102.5h-1.5v-1.7h1.5V102.5z"/>
		<path class="st4" d="M193.6,115.9h-1.5v-10.7h1.5V115.9z M193.6,102.5h-1.5v-1.7h1.5V102.5z"/>
		<path class="st0" d="M202.7,110.6c0-1.8-0.4-4.4-2.8-4.4s-2.8,2.5-2.8,4.4s0.4,4.4,2.8,4.4S202.8,112.4,202.7,110.6L202.7,110.6z
			 M195.7,110.6c0-4,1.9-5.6,4.3-5.6s4.3,1.6,4.3,5.6s-1.9,5.6-4.3,5.6S195.7,114.6,195.7,110.6z"/>
		<path class="st4" d="M202.7,110.6c0-1.8-0.4-4.4-2.8-4.4s-2.8,2.5-2.8,4.4s0.4,4.4,2.8,4.4S202.8,112.4,202.7,110.6L202.7,110.6z
			 M195.7,110.6c0-4,1.9-5.6,4.3-5.6s4.3,1.6,4.3,5.6s-1.9,5.6-4.3,5.6S195.7,114.6,195.7,110.6z"/>
		<path class="st0" d="M207.8,115.9h-1.5v-10.7h1.5v1.1c0.8-0.8,1.8-1.3,2.9-1.4c1.5,0,2.7,0.8,2.7,3.6v7.4h-1.5v-7
			c0-1.1,0.2-2.8-1.4-2.8c-1.1,0.2-2.1,0.8-2.7,1.6V115.9L207.8,115.9z"/>
		<path class="st4" d="M207.8,115.9h-1.5v-10.7h1.5v1.1c0.8-0.8,1.8-1.3,2.9-1.4c1.5,0,2.7,0.8,2.7,3.6v7.4h-1.5v-7
			c0-1.1,0.2-2.8-1.4-2.8c-1.1,0.2-2.1,0.8-2.7,1.6V115.9L207.8,115.9z"/>
		<path class="st0" d="M229.1,104.9c-0.5-1.7-1.2-3.1-3.1-3.1c-1.4,0-2.6,1.1-2.6,2.6c0,3.8,7.3,2.3,7.3,7.5
			c0.1,2.3-1.8,4.2-4.1,4.3c-0.1,0-0.3,0-0.4,0c-2.5,0.1-4.7-1.7-5.1-4.2l1.5-0.4c0.3,1.8,1.8,3.2,3.6,3.3c1.6,0,2.8-1.2,2.9-2.8
			l0,0c0-4.2-7.3-2.4-7.3-7.5c0-2.3,1.8-4.1,4.1-4.1c0.1,0,0.2,0,0.2,0c2.4,0,3.9,1.8,4.5,3.9L229.1,104.9L229.1,104.9z"/>
		<path class="st4" d="M229.1,104.9c-0.5-1.7-1.2-3.1-3.1-3.1c-1.4,0-2.6,1.1-2.6,2.6c0,3.8,7.3,2.3,7.3,7.5
			c0.1,2.3-1.8,4.2-4.1,4.3c-0.1,0-0.3,0-0.4,0c-2.5,0.1-4.7-1.7-5.1-4.2l1.5-0.4c0.3,1.8,1.8,3.2,3.6,3.3c1.6,0,2.8-1.2,2.9-2.8
			l0,0c0-4.2-7.3-2.4-7.3-7.5c0-2.3,1.8-4.1,4.1-4.1c0.1,0,0.2,0,0.2,0c2.4,0,3.9,1.8,4.5,3.9L229.1,104.9L229.1,104.9z"/>
		<path class="st0" d="M238.9,109.5c0-1.4-0.7-3.3-2.3-3.3s-2.5,1.8-2.5,3.3H238.9z M234.1,110.8c0,3.1,1.3,4.1,2.8,4.1
			c1.1-0.1,2.1-0.8,2.6-1.8l1.1,0.7c-0.7,1.5-2.2,2.4-3.8,2.4c-2.4,0-4.3-1.6-4.3-5.6s1.9-5.6,4.3-5.6c3.1,0,4,3.3,3.8,5.9
			L234.1,110.8L234.1,110.8z"/>
		<path class="st4" d="M238.9,109.5c0-1.4-0.7-3.3-2.3-3.3s-2.5,1.8-2.5,3.3H238.9z M234.1,110.8c0,3.1,1.3,4.1,2.8,4.1
			c1.1-0.1,2.1-0.8,2.6-1.8l1.1,0.7c-0.7,1.5-2.2,2.4-3.8,2.4c-2.4,0-4.3-1.6-4.3-5.6s1.9-5.6,4.3-5.6c3.1,0,4,3.3,3.8,5.9
			L234.1,110.8L234.1,110.8z"/>
		<path class="st0" d="M244.2,107.5L244.2,107.5c0.6-1.3,1.4-2.5,3-2.5h0.6v1.4c-2-0.3-3,1.9-3.6,3.4v6h-1.5v-10.6h1.5V107.5
			L244.2,107.5z"/>
		<path class="st4" d="M244.2,107.5L244.2,107.5c0.6-1.3,1.4-2.5,3-2.5h0.6v1.4c-2-0.3-3,1.9-3.6,3.4v6h-1.5v-10.6h1.5V107.5
			L244.2,107.5z"/>
		<polygon class="st0" points="253.7,115.9 251.5,115.9 248.4,105.2 249.9,105.2 252.6,114.5 255.3,105.2 256.7,105.2 		"/>
		<polygon class="st4" points="253.7,115.9 251.5,115.9 248.4,105.2 249.9,105.2 252.6,114.5 255.3,105.2 256.7,105.2 		"/>
		<path class="st0" d="M259.5,115.9H258v-10.7h1.5V115.9L259.5,115.9z M259.5,102.5H258v-1.7h1.5V102.5L259.5,102.5z"/>
		<path class="st4" d="M259.5,115.9H258v-10.7h1.5V115.9L259.5,115.9z M259.5,102.5H258v-1.7h1.5V102.5L259.5,102.5z"/>
		<path class="st0" d="M268,108.2c-0.4-1-1-2-2.1-2c-2.3,0-2.8,2.5-2.8,4.4s0.5,4.4,2.8,4.4c1.2-0.2,2.2-1,2.5-2.1l1.2,0.5
			c-0.5,1.6-2,2.8-3.7,2.9c-2.4,0-4.3-1.6-4.3-5.6s1.9-5.6,4.3-5.6c1.6,0,3,1.1,3.4,2.7L268,108.2L268,108.2z"/>
		<path class="st4" d="M268,108.2c-0.4-1-1-2-2.1-2c-2.3,0-2.8,2.5-2.8,4.4s0.5,4.4,2.8,4.4c1.2-0.2,2.2-1,2.5-2.1l1.2,0.5
			c-0.5,1.6-2,2.8-3.7,2.9c-2.4,0-4.3-1.6-4.3-5.6s1.9-5.6,4.3-5.6c1.6,0,3,1.1,3.4,2.7L268,108.2L268,108.2z"/>
		<path class="st0" d="M277.8,109.5c0-1.4-0.7-3.3-2.3-3.3s-2.5,1.8-2.5,3.3H277.8z M273,110.8c0,3.1,1.3,4.1,2.8,4.1
			c1.1-0.1,2.1-0.8,2.6-1.8l1.1,0.7c-0.7,1.5-2.2,2.4-3.9,2.4c-2.4,0-4.3-1.6-4.3-5.6s1.9-5.6,4.3-5.6c3.1,0,4,3.3,3.8,5.9
			L273,110.8L273,110.8z"/>
		<path class="st4" d="M277.8,109.5c0-1.4-0.7-3.3-2.3-3.3s-2.5,1.8-2.5,3.3H277.8z M273,110.8c0,3.1,1.3,4.1,2.8,4.1
			c1.1-0.1,2.1-0.8,2.6-1.8l1.1,0.7c-0.7,1.5-2.2,2.4-3.9,2.4c-2.4,0-4.3-1.6-4.3-5.6s1.9-5.6,4.3-5.6c3.1,0,4,3.3,3.8,5.9
			L273,110.8L273,110.8z"/>
		<path class="st0" d="M287.5,107.6c-0.5-0.9-1.4-1.4-2.4-1.4s-1.9,0.5-1.9,1.6c0,2.6,5.6,1.5,5.6,5.1c0.1,1.8-1.3,3.3-3.1,3.4
			c-0.1,0-0.2,0-0.4,0c-1.6,0.1-3.2-0.8-4-2.2l1.2-0.8c0.5,1.1,1.6,1.7,2.8,1.7c1,0.1,2-0.6,2.1-1.6c0-0.1,0-0.1,0-0.2
			c0-2.7-5.6-1.4-5.6-5.2c0-1.7,1.3-3,3-3c0.1,0,0.2,0,0.3,0c1.4,0,2.8,0.7,3.6,1.9L287.5,107.6L287.5,107.6z"/>
		<g>
			<g>
				<defs>
					<rect id="SVGID_7_" x="98" y="25.5" width="190.9" height="93.8"/>
				</defs>
				<clipPath id="SVGID_8_">
					<use xlink:href="#SVGID_7_"  style="overflow:visible;"/>
				</clipPath>
				<g class="st6">
					<path class="st4" d="M287.5,107.6c-0.5-0.9-1.4-1.4-2.4-1.4s-1.9,0.5-1.9,1.6c0,2.6,5.6,1.5,5.6,5.1c0.1,1.8-1.3,3.3-3.1,3.4
						c-0.1,0-0.2,0-0.4,0c-1.6,0.1-3.2-0.8-4-2.2l1.2-0.8c0.5,1.1,1.6,1.7,2.8,1.7c1,0.1,2-0.6,2.1-1.6c0-0.1,0-0.1,0-0.2
						c0-2.7-5.6-1.4-5.6-5.2c0-1.7,1.3-3,3-3c0.1,0,0.2,0,0.3,0c1.4,0,2.8,0.7,3.6,1.9L287.5,107.6L287.5,107.6z"/>
				</g>
			</g>
		</g>
		<path class="st7" d="M455.8,52.2c3.1,0,5.7-2.5,5.7-5.7c0-3.1-2.5-5.7-5.7-5.7s-5.7,2.5-5.7,5.7l0,0
			C450.1,49.6,452.7,52.2,455.8,52.2 M465.4,75c-8.7,0-15.8,7-15.9,15.8c0,8.7,7,15.8,15.8,15.9c8.7,0,15.8-7,15.9-15.8l0,0
			C481.1,82.1,474.1,75,465.4,75L465.4,75 M465.4,101.9c-6.1,0-11.1-4.9-11.2-11c0-6.1,4.9-11.1,11-11.2c6.1,0,11.1,4.9,11.2,11v0.1
			C476.4,96.9,471.4,101.8,465.4,101.9 M452.1,68.7h13.3V63h-10.1l-6.1-10.3c-0.9-1.6-2.7-2.7-4.6-2.6c-1.4,0-2.8,0.6-3.8,1.6
			L429,63.2c-1.1,1-1.7,2.4-1.7,3.8c0,1.9,1,3.7,2.7,4.6l10.6,6.4v16h5.7V73.4l-7.1-5.3l7.4-7.4L452.1,68.7z M421,75
			c-8.7,0-15.8,7.1-15.8,15.8s7.1,15.8,15.8,15.8c8.7,0,15.8-7.1,15.8-15.8l0,0C436.8,82.1,429.8,75,421,75L421,75 M421,101.9
			c-6.1,0-11.1-5-11.1-11.1s5-11.1,11.1-11.1s11.1,5,11.1,11.1l0,0C432.1,96.9,427.1,101.9,421,101.9"/>
		<path class="st7" d="M658,55.9c-0.5-5.6-1.5-9.9-2.9-11.6c-5.9-7-47.3-7.5-52,0c-1.2,1.8-2,6.2-2.5,11.6c-1.8,0.2-3.1,1.7-3.1,3.4
			v6.8c0,1.5,0.9,2.8,2.3,3.3c-0.3,10.8,0,21.9,0.4,27.5c0,4.3,2.9,3.6,2.9,3.6h2.7v4.6c0,1.9,1.9,3.3,4.2,3.3s4.2-1.5,4.2-3.3v-4.6
			h31.5v4.6c0,1.9,1.9,3.4,4.2,3.4s4.2-1.5,4.2-3.4v-4.6h0.9c0,0,3.4,0.5,3.5-1.6c0-5.5,0.4-17.8,0.1-29.5c1.5-0.4,2.5-1.8,2.5-3.3
			v-6.8C661.3,57.5,659.9,56,658,55.9 M613.3,45.3H645v4.8h-31.8L613.3,45.3z M613.7,95.1c-2.5-0.1-4.4-2.2-4.3-4.7
			c0.1-2.3,2-4.2,4.3-4.3c2.5,0,4.5,2.1,4.5,4.6l0,0C618.2,93.1,616.2,95.1,613.7,95.1L613.7,95.1 M644.9,95.1c-2.5,0-4.5-2-4.5-4.5
			l0,0c0-2.5,2-4.5,4.5-4.5s4.5,2,4.5,4.5C649.4,93,647.4,95.1,644.9,95.1L644.9,95.1 M650.7,75.3h-43V52.8h43V75.3z"/>
		<path class="st7" d="M783.8,37.6h40.7c3.4,0,6.2,2.8,6.2,6.2v40.7c0,3.4-2.8,6.2-6.2,6.2h-40.7c-3.4,0-6.2-2.8-6.2-6.2V43.8
			C777.6,40.4,780.4,37.6,783.8,37.6z"/>
		<path class="st8" d="M794.9,47.9h18.5c5.8,0,10.5,4.7,10.5,10.5l0,0c0,5.8-4.7,10.5-10.5,10.5h-18.5c-5.8,0-10.5-4.7-10.5-10.5
			l0,0C784.4,52.6,789.1,47.9,794.9,47.9z"/>
		<circle class="st8" cx="787.9" cy="76.5" r="3.5"/>
		<circle class="st8" cx="820.4" cy="76.5" r="3.5"/>
		<line class="st9" x1="788.4" y1="96.8" x2="819.9" y2="96.8"/>
		<line class="st9" x1="787.8" y1="84" x2="787.8" y2="111.7"/>
		<line class="st9" x1="820.5" y1="84" x2="820.5" y2="111.7"/>
		<line class="st9" x1="788.4" y1="105.4" x2="819.9" y2="105.4"/>
		<path class="st7" d="M792.6,35.7h23c1.1,0,1.9,0.9,1.9,1.9l0,0c0,1.1-0.9,1.9-1.9,1.9h-23c-1.1,0-1.9-0.9-1.9-1.9l0,0
			C790.7,36.6,791.6,35.7,792.6,35.7z"/>
		
			<ellipse transform="matrix(0.2298 -0.9732 0.9732 0.2298 319.172 550.6911)" class="st7" cx="507.5" cy="73.7" rx="5.4" ry="5.4"/>
		<circle class="st7" cx="378.9" cy="73.7" r="5.4"/>
		<circle class="st7" cx="539.3" cy="73.7" r="5.4"/>
		<circle class="st7" cx="571.1" cy="73.7" r="5.4"/>
		<circle class="st7" cx="687.7" cy="73.7" r="5.4"/>
		<circle class="st7" cx="920.6" cy="73.7" r="5.4"/>
		<circle class="st7" cx="719.5" cy="73.7" r="5.4"/>
		<circle class="st7" cx="888.8" cy="73.7" r="5.4"/>
		<circle class="st7" cx="751.2" cy="73.7" r="5.4"/>
		<circle class="st7" cx="857" cy="73.7" r="5.4"/>
		<circle class="st7" cx="315.3" cy="73.7" r="5.4"/>
		<circle class="st7" cx="347" cy="73.7" r="5.4"/>
		<path class="st10" d="M974,81l-0.7-4.6h9.5c1.9,0.1,3.5,1.5,3.9,3.4l0.2,1.2H974 M967.5,84.6l-0.4-2.8c0.5,0.8,1.2,1.5,2,2l0,0
			l0.3,0.2c1.3,1,2.8,1.5,4.5,1.5h16.5l0.2,1.6l0.6,4.4h-15.5c-1.9,0-3.8-0.7-5.2-2C968.9,88.2,967.9,86.5,967.5,84.6L967.5,84.6z
			 M971.6,95.8h40.8c-0.3,0.8-0.4,1.6-0.5,2.4s-0.1,1.7-0.1,2.5h-39.5c0-0.8,0-1.7-0.1-2.5C972.1,97.3,971.9,96.6,971.6,95.8
			L971.6,95.8z M960.2,90.4c-5.3,0-9.5,4.3-9.5,9.5c0,5.3,4.3,9.5,9.5,9.5c5.3,0,9.5-4.3,9.5-9.5c0-2.5-1-4.9-2.8-6.7
			C965.1,91.4,962.7,90.4,960.2,90.4L960.2,90.4z M1023.6,90.4c-5.3,0-9.5,4.2-9.5,9.5s4.2,9.5,9.5,9.5c5.3,0,9.5-4.2,9.5-9.5
			c0-2.5-1-5-2.8-6.8C1028.6,91.4,1026.1,90.4,1023.6,90.4L1023.6,90.4z M960.9,64.1h-8.5c-0.4,0.1-0.7,0.5-0.7,0.9l2.3,15.6
			c-3.9,0.1-7.1,3.4-7.1,7.3v7.3h2c2.7-6.2,9.8-9,16-6.4c2.9,1.2,5.1,3.5,6.4,6.4h20.2l-0.4-2.9h-15.7c-2.1,0-4.1-0.8-5.7-2.2
			c-1.6-1.4-2.7-3.3-3-5.3l-0.6-4c0,0,0,0,0-0.1l0,0l-5.6-37.3h44.9l9.9,36.9h-3l-14.1-14.1l3.5-3.5c0.6-0.6,0.6-1.4,0-2
			s-1.4-0.6-2,0l-8.9,8.9c-0.6,0.5-0.6,1.4,0,2l0,0c0.5,0.6,1.4,0.6,1.9,0.1c0,0,0,0,0.1-0.1l3.5-3.5l15,14.9v6.2
			c0,2.2-0.8,4.3-2.2,5.9h3.7c1.9-4.3,6.2-7.1,10.9-7.1h7.5c-0.6-4.5-4.4-7.9-8.9-7.9h-3.9l-9.9-36.9h4.1c0.5,0,0.8-0.4,0.8-0.8
			c0-1.2-0.5-2.3-1.3-3.2l0,0c-0.8-0.8-2-1.3-3.2-1.3h-54.4c-0.2,0-0.4,0.1-0.5,0.2c-0.4,0.3-0.4,0.8-0.1,1.2l0,0l3,3.6
			c0.2,0.2,0.4,0.4,0.7,0.4h0.2L960.9,64.1z M954.5,65.6l2.1,14.2h-1.1l-2.1-14.2H954.5z M958.8,79.8l-2.1-14.2h1.1l2.1,14.2H958.8z
			 M963.1,79.8H962l-2.1-14.2h1.1L963.1,79.8z M1023.6,95c-2.8,0-5,2.2-5,5s2.2,5,5,5c2.8,0,5-2.2,5-5S1026.4,95,1023.6,95z
			 M960.2,95c-2.8,0-5,2.2-5,5s2.2,5,5,5s5-2.2,5-5S962.9,95,960.2,95z M967.4,80c0.9,2.7,3.4,4.6,6.3,4.7h16.7l-0.8-5.6
			c-0.6-3.2-3.3-5.5-6.5-5.6h-10.2l-0.9-6c-0.3-1.8-1.9-3.2-3.8-3.3h-3.3l1.4,9.3l0.8,5.7C967.2,79.4,967.3,79.7,967.4,80z"/>
		<circle class="st7" cx="1123.1" cy="73.7" r="5.4"/>
		<circle class="st7" cx="1091.3" cy="73.7" r="5.4"/>
		<circle class="st7" cx="1059.5" cy="73.7" r="5.4"/>
		<circle class="st7" cx="1324.9" cy="73.7" r="5.4"/>
		<circle class="st7" cx="1293.1" cy="73.7" r="5.4"/>
		<circle class="st7" cx="1261.3" cy="73.7" r="5.4"/>
		<path class="st7" d="M1211.4,71.3h-4.4l-3.6-10.4c-0.5-1.5-1.9-2.5-3.5-2.5h-37.8c-1.6,0-3,1-3.5,2.5l-3.3,9.4h-4.1
			c-0.9,0-1.7,0.8-1.7,1.7v0.9c0,0.9,0.8,1.7,1.7,1.7h2l-0.8,0.9c-1.5,1.5-2.3,3.6-2.3,5.7v22.4c0,1.4,1.1,2.5,2.5,2.5h2.5
			c1.4,0,2.5-1.1,2.5-2.5v-4.9h46.7v4.9c0,1.4,1.1,2.5,2.5,2.5h2.5c1.4,0,2.6-1.1,2.6-2.5l0,0V81.1c0-2.1-0.8-4.1-2.2-5.6h1.6
			c0.9,0,1.7-0.8,1.7-1.7V73C1213,72,1212.3,71.3,1211.4,71.3z M1157.7,71.7l2.8-8.4c0.5-1.5,1.9-2.5,3.5-2.5h33.5
			c1.6,0,3,1,3.5,2.5l2.8,8.3c0.2,0.7-0.1,1.4-0.8,1.6c-0.1,0-0.3,0.1-0.4,0.1h-3.4c-0.3-1.7-1.7-2.9-3.4-2.9h-6
			c-1.7,0-3.2,1.2-3.4,2.9h-11.2c-0.3-1.7-1.7-2.9-3.4-2.9h-6c-1.7,0-3.1,1.2-3.4,2.9h-3.4c-0.7,0-1.2-0.6-1.2-1.3
			C1157.7,71.9,1157.7,71.8,1157.7,71.7z M1172.8,81.7h15.9c0.9,0.1,1.6,0.9,1.5,1.7c-0.1,0.8-0.7,1.4-1.5,1.5h-15.9
			c-0.9,0.1-1.7-0.6-1.7-1.5c-0.1-0.9,0.6-1.7,1.5-1.7C1172.7,81.7,1172.7,81.7,1172.8,81.7z M1166.4,82.5c0,1.1-0.9,2-2,2h-6.4
			c-1.1,0-2-0.9-2-2c0-0.1,0-0.3,0-0.4l0.2-1.2c0.2-1.1,1.2-1.8,2.3-1.6l6.1,1.1C1165.6,80.6,1166.3,81.4,1166.4,82.5L1166.4,82.5z
			 M1192.8,92.9c0,0.7-0.6,1.2-1.2,1.2h-21.2c-0.7,0-1.2-0.5-1.2-1.2v-2.8c0-0.7,0.5-1.2,1.2-1.2l0,0h21.2c0.7,0,1.2,0.5,1.2,1.2
			l0,0V92.9z M1203.9,84.5h-6.4c-1.1,0-2-0.9-2-2v-0.1c0-1,0.7-1.8,1.6-2l6.1-1.1c1.1-0.2,2.1,0.5,2.3,1.6l0.2,1.2
			c0.2,1.1-0.4,2.1-1.5,2.4C1204.2,84.4,1204,84.5,1203.9,84.5z"/>
		<circle class="st7" cx="1192.8" cy="65.6" r="3.6"/>
		<circle class="st7" cx="1168.8" cy="65.7" r="3.6"/>
		<rect x="1221.4" y="62.1" class="st7" width="13.5" height="44"/>
		<path class="st7" d="M1207.8,60.1l-10.8-8.5l5.9-7.5l10.8,8.5L1207.8,60.1z M1223.5,72.5l-10.8-8.5l5.9-7.5l10.8,8.5L1223.5,72.5z
			 M1192.5,48.1l-10.8-8.5l5.9-7.5l10.8,8.5L1192.5,48.1z M1177.2,36.1l-10.8-8.5l5.9-7.5l10.8,8.5L1177.2,36.1z"/>
	</g>
</g>
</svg>
